<mxfile host="65bd71144e">
    <diagram id="_SvaQQFIIUXFQQwiTmM3" name="Page-1">
        <mxGraphModel dx="832" dy="465" grid="0" gridSize="10" guides="1" tooltips="1" connect="1" arrows="1" fold="1" page="1" pageScale="1" pageWidth="850" pageHeight="1100" math="0" shadow="0">
            <root>
                <mxCell id="0"/>
                <mxCell id="1" parent="0"/>
                <mxCell id="11" style="edgeStyle=none;html=1;entryX=0;entryY=0.5;entryDx=0;entryDy=0;entryPerimeter=0;fontSize=14;fontColor=#262626;" parent="1" source="8" target="9" edge="1">
                    <mxGeometry relative="1" as="geometry"/>
                </mxCell>
                <mxCell id="12" style="edgeStyle=none;html=1;entryX=0;entryY=0.5;entryDx=0;entryDy=0;entryPerimeter=0;fontSize=14;fontColor=#262626;" parent="1" source="8" target="10" edge="1">
                    <mxGeometry relative="1" as="geometry"/>
                </mxCell>
                <mxCell id="8" value="&lt;font color=&quot;#262626&quot;&gt;User Computer&lt;/font&gt;" style="verticalLabelPosition=top;html=1;verticalAlign=bottom;align=center;strokeColor=#006EAF;fillColor=#1ba1e2;shape=mxgraph.azure.computer;pointerEvents=1;fontSize=14;fontColor=#ffffff;labelPosition=center;" parent="1" vertex="1">
                    <mxGeometry x="427.03" y="370" width="105.56" height="95" as="geometry"/>
                </mxCell>
                <mxCell id="9" value="&lt;font style=&quot;font-size: 14px;&quot;&gt;add.php&lt;/font&gt;" style="html=1;strokeColor=none;fillColor=#0079D6;labelPosition=center;verticalLabelPosition=middle;verticalAlign=top;align=center;fontSize=12;outlineConnect=0;spacingTop=-6;fontColor=#FFFFFF;sketch=0;shape=mxgraph.sitemap.page;" parent="1" vertex="1">
                    <mxGeometry x="640" y="278" width="137.14" height="80" as="geometry"/>
                </mxCell>
                <mxCell id="10" value="&lt;font style=&quot;font-size: 14px;&quot;&gt;index.php&lt;/font&gt;" style="html=1;strokeColor=none;fillColor=#0079D6;labelPosition=center;verticalLabelPosition=middle;verticalAlign=top;align=center;fontSize=12;outlineConnect=0;spacingTop=-6;fontColor=#FFFFFF;sketch=0;shape=mxgraph.sitemap.page;" parent="1" vertex="1">
                    <mxGeometry x="640" y="440" width="137.14" height="80" as="geometry"/>
                </mxCell>
                <mxCell id="14" value="$_COOKIE('gender')" style="text;strokeColor=none;align=center;fillColor=none;html=1;verticalAlign=middle;whiteSpace=wrap;rounded=0;fontSize=14;" parent="1" vertex="1">
                    <mxGeometry x="678.5699999999999" y="358" width="60" height="30" as="geometry"/>
                </mxCell>
                <mxCell id="15" value="$_COOKIE('gender')" style="text;strokeColor=none;align=center;fillColor=none;html=1;verticalAlign=middle;whiteSpace=wrap;rounded=0;fontSize=14;" parent="1" vertex="1">
                    <mxGeometry x="678.5699999999999" y="520" width="60" height="30" as="geometry"/>
                </mxCell>
                <mxCell id="16" value="$_COOKIE('gender')" style="text;strokeColor=none;align=center;fillColor=none;html=1;verticalAlign=middle;whiteSpace=wrap;rounded=0;fontSize=14;" vertex="1" parent="1">
                    <mxGeometry x="456.99999999999994" y="470" width="60" height="30" as="geometry"/>
                </mxCell>
            </root>
        </mxGraphModel>
    </diagram>
</mxfile>